<?xml version="1.0" standalone="no"?>
<!DOCTYPE svg PUBLIC "-//W3C//DTD SVG 20010904//EN"
 "http://www.w3.org/TR/2001/REC-SVG-20010904/DTD/svg10.dtd">
<svg version="1.0" xmlns="http://www.w3.org/2000/svg"
 width="70.000000pt" height="70.000000pt" viewBox="0 0 70.000000 70.000000"
 preserveAspectRatio="xMidYMid meet">
<metadata>
Created by potrace 1.14, written by Peter Selinger 2001-2017
</metadata>
<g transform="translate(0.000000,70.000000) scale(0.100000,-0.100000)"
fill="#000000" stroke="none">
<path d="M170 480 c0 -5 5 -10 10 -10 6 0 10 5 10 10 0 6 -4 10 -10 10 -5 0
-10 -4 -10 -10z"/>
<path d="M195 460 c-8 -13 0 -23 21 -26 9 -2 14 4 12 13 -4 20 -24 28 -33 13z"/>
<path d="M90 425 l-45 -24 0 -90 c0 -50 0 -91 1 -91 1 0 26 11 55 24 54 26 57
25 107 -10 l22 -16 0 93 0 94 -35 23 c-42 27 -48 27 -105 -3z m86 -41 c18 -14
18 -15 -4 -4 -12 6 -28 8 -34 4 -7 -4 -8 -3 -4 4 10 16 18 15 42 -4z m5 -71
c13 -16 12 -17 -3 -4 -11 8 -28 11 -45 7 -21 -5 -24 -4 -13 4 23 15 46 12 61
-7z"/>
<path d="M584 331 c1 -64 16 -98 16 -38 0 30 4 37 20 37 16 0 20 -7 20 -37 0
-26 3 -34 9 -24 9 14 6 55 -5 73 -3 5 -14 6 -25 3 -14 -5 -19 -2 -19 14 0 11
-4 22 -9 25 -5 3 -8 -21 -7 -53z"/>
<path d="M282 364 c-43 -30 -18 -104 36 -104 11 0 24 5 28 11 4 7 0 9 -14 5
-14 -5 -28 0 -41 13 -28 28 -15 62 30 78 30 11 31 12 9 12 -14 1 -36 -6 -48
-15z"/>
<path d="M362 354 c-7 -8 -8 -14 -3 -14 5 0 11 -17 13 -37 2 -29 8 -39 23 -41
16 -3 17 -1 5 7 -19 13 -20 54 -2 61 10 5 9 9 -5 22 -15 14 -20 14 -31 2z"/>
<path d="M426 328 c-9 -12 -16 -26 -16 -30 0 -15 33 -38 53 -37 19 0 19 2 -5
11 -35 12 -36 28 -4 28 30 0 42 16 26 35 -18 21 -36 18 -54 -7z m44 -9 c0 -5
-10 -9 -21 -9 -18 0 -19 2 -9 15 12 15 30 12 30 -6z"/>
<path d="M516 334 c-33 -32 -8 -75 41 -73 12 0 9 4 -9 11 -42 15 -38 66 5 59
4 0 7 4 7 9 0 15 -27 12 -44 -6z"/>
<path d="M428 233 c7 -3 16 -2 19 1 4 3 -2 6 -13 5 -11 0 -14 -3 -6 -6z"/>
<path d="M468 233 c7 -3 16 -2 19 1 4 3 -2 6 -13 5 -11 0 -14 -3 -6 -6z"/>
</g>
</svg>
