<svg width="56" height="52" viewBox="0 0 56 52" fill="none" xmlns="http://www.w3.org/2000/svg">
<path d="M54.8525 6.52131H52.5V50.9344C52.5 51.5205 51.9836 52 51.3525 52C50.7213 52 50.2049 51.5205 50.2049 50.9344V46.6295H44.1344C43.618 48.4943 41.7934 49.8795 39.6361 49.8795C37.4672 49.8795 35.6426 48.4943 35.1377 46.6295H26.6459C26.1295 48.4943 24.3049 49.8795 22.1475 49.8795C19.9902 49.8795 18.1541 48.4943 17.6492 46.6295H5.79508V50.9344C5.79508 51.5205 5.27869 52 4.64754 52C4.01639 52 3.5 51.5205 3.5 50.9344V6.52131H1.14754C0.516393 6.52131 0 6.04181 0 5.45574V1.06557C0 0.479507 0.516393 0 1.14754 0H54.8525C55.4836 0 56 0.479507 56 1.06557V5.45574C56 6.04181 55.4836 6.52131 54.8525 6.52131ZM43.1361 17.3369C40.9787 17.3369 39.1426 15.9516 38.6377 14.0869H36.0098C35.4934 15.9516 33.6689 17.3369 31.5115 17.3369C29.3426 17.3369 27.518 15.9516 27.0131 14.0869H17.3852C16.8689 15.9516 15.0443 17.3369 12.8869 17.3369C10.7295 17.3369 8.89344 15.9516 8.38852 14.0869H5.81803V22.7713H14.1607C14.677 20.9066 16.5016 19.5213 18.659 19.5213C20.8279 19.5213 22.6525 20.9066 23.1574 22.7713H25.877C26.3934 20.9066 28.218 19.5213 30.3754 19.5213C32.5443 19.5213 34.3689 20.9066 34.8738 22.7713H37.5016C38.018 20.9066 39.8426 19.5213 42 19.5213C44.1688 19.5213 45.9934 20.9066 46.4984 22.7713H50.2049V14.0869H47.6344C47.118 15.9516 45.2934 17.3369 43.1361 17.3369ZM45.4885 13.0213C45.4885 11.8172 44.4328 10.8369 43.1361 10.8369C41.8393 10.8369 40.7836 11.8172 40.7836 13.0213C40.7836 14.2254 41.8393 15.2057 43.1361 15.2057C44.4328 15.2057 45.4885 14.2361 45.4885 13.0213ZM33.8525 13.0213C33.8525 11.8172 32.7967 10.8369 31.5 10.8369C30.2033 10.8369 29.1475 11.8172 29.1475 13.0213C29.1475 14.2254 30.2033 15.2057 31.5 15.2057C32.7967 15.2164 33.8525 14.2361 33.8525 13.0213ZM15.2164 13.0213C15.2164 11.8172 14.1607 10.8369 12.8639 10.8369C11.5672 10.8369 10.5115 11.8172 10.5115 13.0213C10.5115 14.2254 11.5672 15.2057 12.8639 15.2057C14.1607 15.2057 15.2164 14.2361 15.2164 13.0213ZM16.3639 30.4328C18.5328 30.4328 20.3574 31.818 20.8623 33.6828H24.6262C25.1426 31.818 26.9672 30.4328 29.1246 30.4328C31.2934 30.4328 33.118 31.818 33.623 33.6828H50.1934V24.9131H46.4869C45.9705 26.7779 44.1459 28.1631 41.9885 28.1631C39.8197 28.1631 37.9951 26.7779 37.4902 24.9131H34.8623C34.3459 26.7779 32.5213 28.1631 30.3639 28.1631C28.1951 28.1631 26.3705 26.7779 25.8656 24.9131H23.1459C22.6295 26.7779 20.8049 28.1631 18.6475 28.1631C16.4787 28.1631 14.6541 26.7779 14.1492 24.9131H5.80656V33.6828H11.8656C12.382 31.818 14.2066 30.4328 16.3639 30.4328ZM14.0115 34.7484C14.0115 35.9525 15.0672 36.9328 16.3639 36.9328C17.6607 36.9328 18.7164 35.9525 18.7164 34.7484C18.7164 33.5443 17.6607 32.5639 16.3639 32.5639C15.0672 32.5533 14.0115 33.5336 14.0115 34.7484ZM26.7836 34.7484C26.7836 35.9525 27.8393 36.9328 29.1361 36.9328C30.4328 36.9328 31.4885 35.9525 31.4885 34.7484C31.4885 33.5443 30.4328 32.5639 29.1361 32.5639C27.8393 32.5533 26.7836 33.5336 26.7836 34.7484ZM44.341 23.8475C44.341 22.6434 43.2852 21.6631 41.9885 21.6631C40.6918 21.6631 39.6361 22.6434 39.6361 23.8475C39.6361 25.0516 40.6918 26.032 41.9885 26.032C43.2967 26.032 44.341 25.0516 44.341 23.8475ZM32.7164 23.8475C32.7164 22.6434 31.6607 21.6631 30.3639 21.6631C29.0672 21.6631 28.0115 22.6434 28.0115 23.8475C28.0115 25.0516 29.0672 26.032 30.3639 26.032C31.6607 26.032 32.7164 25.0516 32.7164 23.8475ZM20.9885 23.8475C20.9885 22.6434 19.9328 21.6631 18.6361 21.6631C17.3393 21.6631 16.2836 22.6434 16.2836 23.8475C16.2836 25.0516 17.3393 26.032 18.6361 26.032C19.9328 26.032 20.9885 25.0516 20.9885 23.8475ZM39.6361 47.759C40.9328 47.759 41.9885 46.7787 41.9885 45.5746C41.9885 44.3705 40.9328 43.3902 39.6361 43.3902C38.3393 43.3902 37.2836 44.3705 37.2836 45.5746C37.2836 46.7787 38.3393 47.759 39.6361 47.759ZM22.1361 47.759C23.4328 47.759 24.4885 46.7787 24.4885 45.5746C24.4885 44.3705 23.4328 43.3902 22.1361 43.3902C20.8393 43.3902 19.7836 44.3705 19.7836 45.5746C19.7836 46.7787 20.8393 47.759 22.1361 47.759ZM5.80656 44.4984H17.6377C18.1541 42.6336 19.9787 41.2484 22.1361 41.2484C24.2934 41.2484 26.1295 42.6336 26.6344 44.4984H35.1262C35.6426 42.6336 37.4672 41.2484 39.6246 41.2484C41.7934 41.2484 43.618 42.6336 44.123 44.4984H50.1934V35.8139H33.6344C33.118 37.6787 31.2934 39.0639 29.1361 39.0639C26.9672 39.0639 25.1426 37.6787 24.6377 35.8139H20.8738C20.3574 37.6787 18.5328 39.0639 16.3754 39.0639C14.2066 39.0639 12.382 37.6787 11.877 35.8139H5.80656V44.4984ZM5.77213 11.9557H5.79508H8.36557C8.88197 10.091 10.7066 8.70574 12.8639 8.70574C15.0213 8.70574 16.8574 10.091 17.3623 11.9557H26.9902C27.5066 10.091 29.3311 8.70574 31.4885 8.70574C33.6574 8.70574 35.482 10.091 35.9869 11.9557H38.6148C39.1311 10.091 40.9557 8.70574 43.1131 8.70574C45.2705 8.70574 47.1066 10.091 47.6115 11.9557H50.182V6.52131H5.77213V11.9557ZM53.7049 2.13115H2.29508V4.39017H53.7049V2.13115Z" fill="#FF8100"/>
</svg>
