<svg width="62" height="56" viewBox="0 0 62 56" fill="none" xmlns="http://www.w3.org/2000/svg">
<path d="M5.16666 49V7H30.3542V16.625H56.8333V49H5.16666ZM9.04166 45.5H15.8229V39.375H9.04166V45.5ZM9.04166 35.875H15.8229V29.75H9.04166V35.875ZM9.04166 26.25H15.8229V20.125H9.04166V26.25ZM9.04166 16.625H15.8229V10.5H9.04166V16.625ZM19.6979 45.5H26.4792V39.375H19.6979V45.5ZM19.6979 35.875H26.4792V29.75H19.6979V35.875ZM19.6979 26.25H26.4792V20.125H19.6979V26.25ZM19.6979 16.625H26.4792V10.5H19.6979V16.625ZM30.3542 45.5H52.9583V20.125H30.3542V26.25H35.5208V29.75H30.3542V35.875H35.5208V39.375H30.3542V45.5ZM42.3021 29.75V26.25H46.1771V29.75H42.3021ZM42.3021 39.375V35.875H46.1771V39.375H42.3021Z" fill="#FF8100"/>
</svg>
