<svg width="62" height="58" viewBox="0 0 62 58" fill="none" xmlns="http://www.w3.org/2000/svg">
<path d="M17.3729 50.75L16.7917 46.7625L24.9937 25.6167C25.4674 26.0597 25.9948 26.4222 26.576 26.7042C27.1573 26.9861 27.7708 27.2278 28.4167 27.4292L20.4729 47.9104L17.3729 50.75ZM44.6271 50.75L41.5271 47.9104L33.4542 27.4896C34.1 27.2882 34.7243 27.0465 35.3271 26.7646C35.9299 26.4826 36.4681 26.1201 36.9417 25.6771L45.2083 46.7625L44.6271 50.75ZM31 26.5833C28.8472 26.5833 27.0174 25.8785 25.5104 24.4688C24.0035 23.059 23.25 21.3472 23.25 19.3333C23.25 17.6417 23.7774 16.1413 24.8323 14.8323C25.8872 13.5233 27.2972 12.6875 29.0625 12.325V7.25H32.9375V12.325C34.7028 12.6875 36.1128 13.5233 37.1677 14.8323C38.2226 16.1413 38.75 17.6417 38.75 19.3333C38.75 21.3472 37.9965 23.059 36.4896 24.4688C34.9826 25.8785 33.1528 26.5833 31 26.5833ZM31 22.9583C32.0764 22.9583 32.9913 22.6059 33.7448 21.901C34.4983 21.1962 34.875 20.3403 34.875 19.3333C34.875 18.3264 34.4983 17.4705 33.7448 16.7656C32.9913 16.0608 32.0764 15.7083 31 15.7083C29.9236 15.7083 29.0087 16.0608 28.2552 16.7656C27.5017 17.4705 27.125 18.3264 27.125 19.3333C27.125 20.3403 27.5017 21.1962 28.2552 21.901C29.0087 22.6059 29.9236 22.9583 31 22.9583Z" fill="#FF8100"/>
</svg>
