<svg width="50" height="47" viewBox="0 0 50 47" fill="none" xmlns="http://www.w3.org/2000/svg">
<path d="M45.3227 31.7837L44.0654 23.9036C43.9224 23.2384 43.5394 22.6399 42.9811 22.2096C42.4228 21.7792 41.7235 21.5432 41.0015 21.5417H34.6373C34.8469 21.0264 34.888 20.464 34.7554 19.9266L33.6975 13.9733C33.528 13.3378 33.1375 12.7738 32.5878 12.371C32.0382 11.9681 31.3611 11.7496 30.6642 11.75H19.3358C18.6256 11.7532 17.9374 11.9824 17.3836 12.4004C16.8298 12.8184 16.443 13.4005 16.2862 14.0516L15.2608 19.851C15.1166 20.4118 15.1529 21.0003 15.365 21.5417H8.99854C8.26863 21.5456 7.56291 21.788 7.00239 22.2275C6.44187 22.667 6.06148 23.2761 5.92646 23.9504L4.68541 31.736C4.59466 32.1622 4.60566 32.602 4.71763 33.0238C4.82959 33.4455 5.03974 33.8386 5.3329 34.1748C5.62607 34.511 5.99494 34.7818 6.41292 34.9677C6.83091 35.1536 7.28758 35.2501 7.75 35.25H21.4167C21.8792 35.2507 22.3361 35.1545 22.7541 34.9684C23.1721 34.7823 23.5408 34.511 23.8333 34.1743C24.1235 33.8458 24.3328 33.461 24.4461 33.0476C24.5593 32.6341 24.5739 32.2021 24.4885 31.7828L23.2312 23.9026C23.1869 23.7646 23.1311 23.63 23.0646 23.5H26.9433C26.869 23.6448 26.8076 23.7951 26.7596 23.9494L25.5185 31.736C25.4278 32.1622 25.4388 32.6021 25.5508 33.0238C25.6627 33.4456 25.8729 33.8387 26.1661 34.1749C26.4593 34.511 26.8282 34.7818 27.2462 34.9678C27.6642 35.1537 28.1209 35.2501 28.5833 35.25H42.25C42.7125 35.2507 43.1694 35.1545 43.5874 34.9684C44.0054 34.7823 44.3741 34.511 44.6667 34.1743C44.9569 33.846 45.1662 33.4614 45.2796 33.0481C45.393 32.6348 45.4077 32.203 45.3227 31.7837ZM17.4723 21.1659C17.3688 21.0364 17.2992 20.8858 17.2691 20.7264C17.2391 20.5669 17.2495 20.403 17.2994 20.248L18.3248 14.4513C18.3806 14.239 18.5105 14.0504 18.6938 13.9157C18.8771 13.781 19.1032 13.708 19.3358 13.7083H30.6642C30.8837 13.7051 31.0985 13.7678 31.2775 13.8874C31.4564 14.0069 31.59 14.1771 31.659 14.373L32.7169 20.3234C32.7556 20.4679 32.7587 20.6188 32.726 20.7646C32.6933 20.9104 32.6256 21.0473 32.5281 21.1648C32.4306 21.2823 32.3058 21.3773 32.1633 21.4426C32.0208 21.5079 31.8644 21.5418 31.7058 21.5417H18.2942C18.1357 21.5422 17.9793 21.5086 17.8368 21.4435C17.6943 21.3783 17.5696 21.2834 17.4723 21.1659ZM21.1806 24.2404L22.4379 32.1208C22.4681 32.2628 22.4644 32.4093 22.427 32.5498C22.3897 32.6903 22.3196 32.8213 22.2219 32.9333C22.1243 33.0453 22.0014 33.1355 21.8621 33.1975C21.7229 33.2595 21.5707 33.2916 21.4167 33.2917H7.75C7.59583 33.2918 7.44358 33.2596 7.30424 33.1976C7.16491 33.1356 7.04199 33.0453 6.94437 32.9331C6.84263 32.814 6.77101 32.6747 6.73492 32.5258C6.69883 32.3769 6.69921 32.2222 6.73604 32.0734L7.97708 24.2871C8.02487 24.0654 8.15261 23.866 8.33872 23.7226C8.52483 23.5792 8.7579 23.5005 8.99854 23.5H20.1681C20.4008 23.4986 20.6273 23.5708 20.811 23.7051C20.9948 23.8393 21.1252 24.0277 21.1812 24.2401L21.1806 24.2404ZM43.0556 32.9335C42.958 33.0456 42.835 33.1359 42.6957 33.1978C42.5564 33.2598 42.4041 33.2918 42.25 33.2917H28.5833C28.4292 33.2918 28.2769 33.2596 28.1376 33.1976C27.9982 33.1356 27.8753 33.0453 27.7777 32.9331C27.676 32.814 27.6043 32.6747 27.5683 32.5258C27.5322 32.3769 27.5325 32.2222 27.5694 32.0734L28.8104 24.2871C28.8582 24.0655 28.9858 23.8661 29.1718 23.7227C29.3578 23.5794 29.5907 23.5007 29.8312 23.5H41.0008C41.2336 23.4986 41.46 23.5708 41.6438 23.7051C41.8275 23.8393 41.9579 24.0277 42.014 24.2401L43.2713 32.1204C43.3019 32.2624 43.2986 32.409 43.2614 32.5496C43.2242 32.6902 43.1541 32.8212 43.0562 32.9331L43.0556 32.9335Z" fill="#009FE3"/>
</svg>
