<svg width="50" height="47" viewBox="0 0 50 47" fill="none" xmlns="http://www.w3.org/2000/svg">
<path d="M49.2816 44.2021H0.718391C0.321552 44.2021 0 43.8998 0 43.5268V3.47363C0 3.1006 0.321552 2.79834 0.718391 2.79834H44.3023C44.6991 2.79834 45.0207 3.1006 45.0207 3.47363V23.4424H49.2816C49.6784 23.4424 50 23.7447 50 24.1177V43.5268C50 43.8998 49.6784 44.2021 49.2816 44.2021ZM13.0747 42.8515H48.5632V24.793H33.7066C33.3098 24.793 32.9882 24.4907 32.9882 24.1177V22.8176H31.2147C30.8178 22.8176 30.4963 22.5154 30.4963 22.1424C30.4963 21.7693 30.8178 21.4671 31.2147 21.4671H32.9882V17.1001C32.9882 16.7271 33.3098 16.4248 33.7066 16.4248C34.1034 16.4248 34.425 16.7271 34.425 17.1001V23.4424H38.6V4.14891H34.425V9.08662C34.425 9.45964 34.1034 9.7619 33.7066 9.7619C33.3098 9.7619 32.9882 9.45964 32.9882 9.08662V7.01564H21.6954C21.2986 7.01564 20.977 6.71339 20.977 6.34036V4.14891H18.3543V7.28576C18.3543 7.65879 18.0328 7.96105 17.6359 7.96105C17.2391 7.96105 16.9175 7.65879 16.9175 7.28576V4.14891H16.1399V5.89035C16.1399 6.26337 15.8184 6.56563 15.4216 6.56563H15.1977C15.3261 6.84142 15.3977 7.14611 15.3977 7.46593V9.22167C15.3977 10.4629 14.3236 11.4725 13.0032 11.4725C11.6828 11.4725 10.6086 10.4629 10.6086 9.22167V7.46593C10.6086 7.14584 10.6802 6.84142 10.8086 6.56563H10.5848C10.1879 6.56563 9.86638 6.26337 9.86638 5.89035V4.14891H7.25575V13.0932C7.25575 13.4663 6.9342 13.7685 6.53736 13.7685H5.60345V17.5604H16.9175V14.4438C16.9175 14.0708 17.2391 13.7685 17.6359 13.7685C18.0328 13.7685 18.3543 14.0708 18.3543 14.4438V21.4668H20.1279C20.5247 21.4668 20.8463 21.7691 20.8463 22.1421C20.8463 22.5151 20.5247 22.8174 20.1279 22.8174H18.3543V26.1263C18.3543 26.4993 18.0328 26.8016 17.6359 26.8016C17.2391 26.8016 16.9175 26.4993 16.9175 26.1263V18.911H6.65718V38.3041H12.3563C12.7532 38.3041 13.0747 38.6064 13.0747 38.9794V42.8515ZM1.43678 42.8515H11.6379V39.6547H5.93879C5.54195 39.6547 5.2204 39.3525 5.2204 38.9794V27.2294H1.43678V42.8515ZM1.43678 25.8789H5.2204V18.911H1.43678V25.8789ZM42.5287 23.4424H43.5839V4.14891H42.5287V23.4424ZM40.0368 23.4424H41.092V4.14891H40.0368V23.4424ZM1.43678 17.3251H4.16667V13.7685H1.43678V17.3251ZM4.88506 12.4179H5.81897V4.14891H1.43678V12.4179H4.88506ZM13.0029 6.56563C12.4747 6.56563 12.0451 6.96972 12.0451 7.46593V9.22167C12.0451 9.71814 12.4747 10.122 13.0029 10.122C13.531 10.122 13.9606 9.71814 13.9606 9.22167V7.46593C13.9606 6.96972 13.531 6.56563 13.0029 6.56563ZM22.4138 5.66507H32.9882V4.14891H22.4138V5.66507ZM13.0029 5.21506H14.7032V4.14891H11.3026V5.21506H13.0029ZM28.723 40.8475H22.9629C22.5661 40.8475 22.2445 40.5453 22.2445 40.1723V27.7978C22.2445 27.4247 22.5661 27.1225 22.9629 27.1225H28.723C29.1198 27.1225 29.4414 27.4247 29.4414 27.7978V40.1725C29.4414 40.5453 29.1195 40.8475 28.723 40.8475ZM23.6813 39.497H28.0046V38.8217H25.4549C25.058 38.8217 24.7365 38.5194 24.7365 38.1464V29.8236C24.7365 29.4506 25.058 29.1483 25.4549 29.1483H28.0046V28.473H23.6813V39.497ZM26.1733 37.4711H28.0046V30.4989H26.1733V37.4711ZM44.3023 40.4424C43.9055 40.4424 43.5839 40.1401 43.5839 39.7671V28.1521C43.5839 27.7791 43.9055 27.4769 44.3023 27.4769C44.6991 27.4769 45.0207 27.7791 45.0207 28.1521V30.2472C45.3943 30.2709 45.6897 30.5635 45.6897 30.9208V36.9984C45.6897 37.3558 45.3945 37.6483 45.0207 37.6721V39.7671C45.0207 40.1401 44.6991 40.4424 44.3023 40.4424ZM37.3767 39.632C35.092 39.632 33.3023 37.3185 33.3023 34.3648C33.3023 31.4111 35.092 29.0975 37.3767 29.0975C39.6615 29.0975 41.4511 31.4111 41.4511 34.3648C41.4511 37.3185 39.6615 39.632 37.3767 39.632ZM37.3767 30.4481C35.9468 30.4481 34.7391 32.2417 34.7391 34.3648C34.7391 36.4879 35.9471 38.2815 37.3767 38.2815C38.8063 38.2815 40.0144 36.4879 40.0144 34.3648C40.0144 32.2417 38.8063 30.4481 37.3767 30.4481Z" fill="#009FE3"/>
</svg>
