<svg width="62" height="44" viewBox="0 0 62 44" fill="none" xmlns="http://www.w3.org/2000/svg">
<path d="M60.9261 11.217H47.109V1.5056C47.109 0.950782 46.6282 0.500977 46.0351 0.500977H1.07391C0.480827 0.500977 0 0.950782 0 1.5056V31.7784C0 32.3332 0.480827 32.783 1.07391 32.783H14.891V42.4944C14.891 43.0493 15.3718 43.4991 15.9649 43.4991H60.9261C61.5192 43.4991 62 43.0493 62 42.4944V12.2216C62 11.6668 61.5192 11.217 60.9261 11.217ZM59.8522 17.1503H17.0388V13.2263H59.8522V17.1503ZM44.9612 2.51023V6.43431H2.14783V2.51023H44.9612ZM2.14783 30.7738V8.44357H44.9612V11.217H15.9649C15.3718 11.217 14.891 11.6668 14.891 12.2216V30.7738H2.14783V30.7738ZM17.0388 19.1596H30.0149V41.4898H17.0388V19.1596V19.1596ZM32.1627 41.4898V19.1596H59.8522V41.4898H32.1627Z" fill="#009FE3"/>
<path d="M19.2617 16.1931C19.5452 16.1931 19.8216 16.0859 20.022 15.8984C20.2211 15.7122 20.3356 15.4523 20.3356 15.1885C20.3356 14.9232 20.2211 14.6647 20.022 14.4785C19.8216 14.291 19.5452 14.1838 19.2617 14.1838C18.9796 14.1838 18.7018 14.291 18.5028 14.4785C18.3023 14.6647 18.1878 14.9232 18.1878 15.1885C18.1878 15.4523 18.3023 15.7122 18.5028 15.8984C18.7031 16.0859 18.9795 16.1931 19.2617 16.1931Z" fill="#009FE3"/>
<path d="M21.9206 16.1931C22.2041 16.1931 22.4804 16.0859 22.6809 15.8984C22.8799 15.7122 22.9945 15.4523 22.9945 15.1885C22.9945 14.9246 22.8799 14.6647 22.6809 14.4772C22.4804 14.291 22.2041 14.1838 21.9206 14.1838C21.6385 14.1838 21.3621 14.291 21.1617 14.4772C20.9626 14.6647 20.8481 14.9246 20.8481 15.1885C20.8481 15.4523 20.9626 15.7122 21.1617 15.8984C21.3621 16.0859 21.6385 16.1931 21.9206 16.1931Z" fill="#009FE3"/>
<path d="M24.581 16.1931C24.8631 16.1931 25.1394 16.0859 25.3399 15.8984C25.5404 15.7122 25.6549 15.4523 25.6549 15.1885C25.6549 14.9232 25.5404 14.6647 25.3399 14.4772C25.1394 14.291 24.8631 14.1838 24.581 14.1838C24.2975 14.1838 24.0211 14.291 23.8207 14.4772C23.6216 14.6647 23.5071 14.9246 23.5071 15.1885C23.5071 15.4523 23.6216 15.7122 23.8207 15.8984C24.0211 16.0859 24.2975 16.1931 24.581 16.1931Z" fill="#009FE3"/>
<path d="M20.0903 23.2331H26.9634C27.5565 23.2331 28.0373 22.7833 28.0373 22.2285C28.0373 21.6737 27.5565 21.2239 26.9634 21.2239H20.0903C19.4972 21.2239 19.0164 21.6737 19.0164 22.2285C19.0164 22.7833 19.4972 23.2331 20.0903 23.2331Z" fill="#009FE3"/>
<path d="M26.9634 24.8403H20.0903C19.4972 24.8403 19.0164 25.2901 19.0164 25.845C19.0164 26.3998 19.4972 26.8496 20.0903 26.8496H26.9634C27.5565 26.8496 28.0373 26.3998 28.0373 25.845C28.0373 25.2901 27.5565 24.8403 26.9634 24.8403Z" fill="#009FE3"/>
<path d="M26.9634 28.457H20.0903C19.4972 28.457 19.0164 28.9068 19.0164 29.4617C19.0164 30.0165 19.4972 30.4663 20.0903 30.4663H26.9634C27.5565 30.4663 28.0373 30.0165 28.0373 29.4617C28.0373 28.9068 27.5565 28.457 26.9634 28.457Z" fill="#009FE3"/>
<path d="M51.1183 21.2239H34.9819C34.3888 21.2239 33.908 21.6737 33.908 22.2285C33.908 22.7833 34.3888 23.2331 34.9819 23.2331H51.1183C51.7113 23.2331 52.1922 22.7833 52.1922 22.2285C52.1922 21.6737 51.7113 21.2239 51.1183 21.2239Z" fill="#009FE3"/>
<path d="M51.1183 24.8403H34.9819C34.3888 24.8403 33.908 25.2901 33.908 25.845C33.908 26.3998 34.3888 26.8496 34.9819 26.8496H51.1183C51.7113 26.8496 52.1922 26.3998 52.1922 25.845C52.1922 25.2901 51.7113 24.8403 51.1183 24.8403Z" fill="#009FE3"/>
<path d="M51.1183 28.457H34.9819C34.3888 28.457 33.908 28.9068 33.908 29.4617C33.908 30.0165 34.3888 30.4663 34.9819 30.4663H51.1183C51.7113 30.4663 52.1922 30.0165 52.1922 29.4617C52.1922 28.9068 51.7113 28.457 51.1183 28.457Z" fill="#009FE3"/>
<path d="M4.37011 5.47703C4.65362 5.47703 4.92998 5.36987 5.13044 5.18234C5.32947 4.99481 5.44402 4.73628 5.44402 4.4724C5.44402 4.20852 5.32947 3.94866 5.13044 3.76246C4.92998 3.57493 4.65362 3.46777 4.37011 3.46777C4.08803 3.46777 3.81167 3.57493 3.61121 3.76246C3.41075 3.94866 3.2962 4.20718 3.2962 4.4724C3.2962 4.73628 3.41075 4.99615 3.61121 5.18234C3.81153 5.36987 4.08788 5.47703 4.37011 5.47703Z" fill="#009FE3"/>
<path d="M7.02898 5.47703C7.31249 5.47703 7.58884 5.36987 7.78931 5.18234C7.98834 4.99615 8.10289 4.73628 8.10289 4.4724C8.10289 4.20718 7.98834 3.94866 7.78931 3.76246C7.58884 3.57493 7.31249 3.46777 7.02898 3.46777C6.7469 3.46777 6.47054 3.57493 6.27008 3.76246C6.07105 3.94866 5.9565 4.20718 5.9565 4.4724C5.9565 4.73628 6.07105 4.99615 6.27008 5.18234C6.47054 5.36987 6.7469 5.47703 7.02898 5.47703Z" fill="#009FE3"/>
<path d="M9.68941 5.47703C9.9715 5.47703 10.2478 5.36987 10.4483 5.18234C10.6488 4.99481 10.7633 4.73628 10.7633 4.4724C10.7633 4.20852 10.6488 3.94866 10.4483 3.76246C10.2493 3.57493 9.9715 3.46777 9.68941 3.46777C9.4059 3.46777 9.12955 3.57493 8.92908 3.76246C8.73005 3.94866 8.6155 4.20718 8.6155 4.4724C8.6155 4.73628 8.73005 4.99615 8.92908 5.18234C9.12955 5.36987 9.4059 5.47703 9.68941 5.47703Z" fill="#009FE3"/>
<path d="M12.0718 10.5078H5.19874C4.60565 10.5078 4.12482 10.9576 4.12482 11.5124C4.12482 12.0673 4.60565 12.5171 5.19874 12.5171H12.0718C12.6649 12.5171 13.1457 12.0673 13.1457 11.5124C13.1457 10.9576 12.6649 10.5078 12.0718 10.5078Z" fill="#009FE3"/>
<path d="M12.0718 14.1245H5.19874C4.60565 14.1245 4.12482 14.5743 4.12482 15.1291C4.12482 15.684 4.60565 16.1338 5.19874 16.1338H12.0718C12.6649 16.1338 13.1457 15.684 13.1457 15.1291C13.1457 14.5743 12.6649 14.1245 12.0718 14.1245Z" fill="#009FE3"/>
<path d="M12.0718 17.741H5.19874C4.60565 17.741 4.12482 18.1908 4.12482 18.7456C4.12482 19.3004 4.60565 19.7502 5.19874 19.7502H12.0718C12.6649 19.7502 13.1457 19.3004 13.1457 18.7456C13.1457 18.1908 12.6649 17.741 12.0718 17.741Z" fill="#009FE3"/>
</svg>
