<svg width="49" height="44" viewBox="0 0 49 44" fill="none" xmlns="http://www.w3.org/2000/svg">
<path d="M46.55 0H12.25C11.6002 0 10.9771 0.289731 10.5176 0.805456C10.0581 1.32118 9.8 2.02065 9.8 2.75V11H22.05V5.5H36.75V33H46.55C47.1998 33 47.823 32.7103 48.2824 32.1945C48.7419 31.6788 49 30.9793 49 30.25V2.75C49 2.02065 48.7419 1.32118 48.2824 0.805456C47.823 0.289731 47.1998 0 46.55 0V0ZM17.7625 8.85156C17.7625 9.05669 17.6899 9.25342 17.5607 9.39847C17.4315 9.54351 17.2562 9.625 17.0734 9.625H14.7766C14.5938 9.625 14.4185 9.54351 14.2893 9.39847C14.1601 9.25342 14.0875 9.05669 14.0875 8.85156V6.27344C14.0875 6.06831 14.1601 5.87158 14.2893 5.72653C14.4185 5.58149 14.5938 5.5 14.7766 5.5H17.0734C17.2562 5.5 17.4315 5.58149 17.5607 5.72653C17.6899 5.87158 17.7625 6.06831 17.7625 6.27344V8.85156ZM44.7125 26.7266C44.7125 26.9317 44.6399 27.1284 44.5107 27.2735C44.3815 27.4185 44.2062 27.5 44.0234 27.5H41.7266C41.5438 27.5 41.3685 27.4185 41.2393 27.2735C41.1101 27.1284 41.0375 26.9317 41.0375 26.7266V24.1484C41.0375 23.9433 41.1101 23.7466 41.2393 23.6015C41.3685 23.4565 41.5438 23.375 41.7266 23.375H44.0234C44.2062 23.375 44.3815 23.4565 44.5107 23.6015C44.6399 23.7466 44.7125 23.9433 44.7125 24.1484V26.7266ZM44.7125 17.7891C44.7125 17.9942 44.6399 18.1909 44.5107 18.336C44.3815 18.481 44.2062 18.5625 44.0234 18.5625H41.7266C41.5438 18.5625 41.3685 18.481 41.2393 18.336C41.1101 18.1909 41.0375 17.9942 41.0375 17.7891V15.2109C41.0375 15.0058 41.1101 14.8091 41.2393 14.664C41.3685 14.519 41.5438 14.4375 41.7266 14.4375H44.0234C44.2062 14.4375 44.3815 14.519 44.5107 14.664C44.6399 14.8091 44.7125 15.0058 44.7125 15.2109V17.7891ZM44.7125 8.85156C44.7125 9.05669 44.6399 9.25342 44.5107 9.39847C44.3815 9.54351 44.2062 9.625 44.0234 9.625H41.7266C41.5438 9.625 41.3685 9.54351 41.2393 9.39847C41.1101 9.25342 41.0375 9.05669 41.0375 8.85156V6.27344C41.0375 6.06831 41.1101 5.87158 41.2393 5.72653C41.3685 5.58149 41.5438 5.5 41.7266 5.5H44.0234C44.2062 5.5 44.3815 5.58149 44.5107 5.72653C44.6399 5.87158 44.7125 6.06831 44.7125 6.27344V8.85156ZM31.85 13.75H2.45C1.80022 13.75 1.17705 14.0397 0.717588 14.5555C0.258124 15.0712 0 15.7707 0 16.5L0 41.25C0 41.9793 0.258124 42.6788 0.717588 43.1945C1.17705 43.7103 1.80022 44 2.45 44H31.85C32.4998 44 33.1229 43.7103 33.5824 43.1945C34.0419 42.6788 34.3 41.9793 34.3 41.25V16.5C34.3 15.7707 34.0419 15.0712 33.5824 14.5555C33.1229 14.0397 32.4998 13.75 31.85 13.75ZM7.35 19.25C7.83456 19.25 8.30825 19.4113 8.71115 19.7135C9.11405 20.0156 9.42807 20.4451 9.61351 20.9476C9.79894 21.4501 9.84746 22.0031 9.75292 22.5365C9.65839 23.0699 9.42505 23.5599 9.08241 23.9445C8.73977 24.3291 8.30322 24.5911 7.82797 24.6972C7.35272 24.8033 6.8601 24.7488 6.41243 24.5407C5.96475 24.3325 5.58211 23.9801 5.3129 23.5278C5.04369 23.0756 4.9 22.5439 4.9 22C4.9 21.2707 5.15812 20.5712 5.61759 20.0555C6.07705 19.5397 6.70022 19.25 7.35 19.25V19.25ZM29.4 38.5H4.9V35.75L9.8 30.25L12.25 33L22.05 22L29.4 30.25V38.5Z" fill="#009FE3"/>
</svg>
