<svg width="76" height="76" viewBox="0 0 76 76" fill="none" xmlns="http://www.w3.org/2000/svg">
<path d="M16.8744 49.5305C16.8744 54.6724 26.5406 58.8405 38.4631 58.8405C50.3856 58.8405 60.0638 54.6249 60.0638 49.5305" stroke="#009FE3" stroke-width="2" stroke-linecap="round" stroke-linejoin="round"/>
<path d="M46.3125 32.6918V30.7087C54.3756 31.1599 60.0994 32.3118 60.0994 33.6418C60.0994 35.3755 50.4331 36.7887 38.5106 36.7887C26.5881 36.7887 16.8744 35.3874 16.8744 33.6537C16.8744 32.2999 22.8119 31.1362 31.0175 30.6968V36.6343" stroke="#009FE3" stroke-width="2" stroke-linecap="round" stroke-linejoin="round"/>
<path d="M16.8744 40.47V49.5306" stroke="#009FE3" stroke-width="2" stroke-linecap="round" stroke-linejoin="round"/>
<path d="M23.8331 56.3826L29.4619 44.1513L34.8175 53.4613L41.5269 40.4819L52.5588 56.5844" stroke="#009FE3" stroke-width="2" stroke-linecap="round" stroke-linejoin="round"/>
<path d="M53.7462 43.3674C53.7462 43.9358 53.5777 44.4914 53.2619 44.964C52.9462 45.4366 52.4973 45.8049 51.9722 46.0224C51.4471 46.2399 50.8693 46.2968 50.3119 46.1859C49.7544 46.0751 49.2424 45.8014 48.8405 45.3995C48.4386 44.9975 48.1649 44.4855 48.054 43.928C47.9431 43.3706 48 42.7928 48.2175 42.2677C48.435 41.7426 48.8033 41.2937 49.2759 40.978C49.7485 40.6622 50.3041 40.4937 50.8725 40.4937" stroke="#009FE3" stroke-width="2" stroke-linecap="round" stroke-linejoin="round"/>
<path d="M16.8744 38.463C17.4515 38.463 17.9194 37.9952 17.9194 37.418C17.9194 36.8409 17.4515 36.373 16.8744 36.373C16.2972 36.373 15.8294 36.8409 15.8294 37.418C15.8294 37.9952 16.2972 38.463 16.8744 38.463Z" fill="#009FE3"/>
<path d="M47.12 26.9206C48.8055 26.9206 50.1719 25.5543 50.1719 23.8688C50.1719 22.1833 48.8055 20.8169 47.12 20.8169C45.4345 20.8169 44.0681 22.1833 44.0681 23.8688C44.0681 25.5543 45.4345 26.9206 47.12 26.9206Z" stroke="#009FE3" stroke-width="2" stroke-linecap="round" stroke-linejoin="round"/>
<path d="M28.8444 20.8169C29.448 20.8169 30.038 20.9959 30.5399 21.3312C31.0418 21.6666 31.433 22.1432 31.664 22.7009C31.8949 23.2585 31.9554 23.8722 31.8376 24.4642C31.7199 25.0562 31.4292 25.6 31.0024 26.0268C30.5756 26.4536 30.0318 26.7442 29.4398 26.862C28.8478 26.9798 28.2341 26.9193 27.6765 26.6883C27.1188 26.4573 26.6422 26.0662 26.3068 25.5643C25.9715 25.0624 25.7925 24.4724 25.7925 23.8688" stroke="#009FE3" stroke-width="2" stroke-linecap="round" stroke-linejoin="round"/>
<path d="M31.9081 17.8125C31.9081 18.2133 31.8292 18.6101 31.6758 18.9804C31.5225 19.3507 31.2977 19.6871 31.0143 19.9705C30.7309 20.2539 30.3944 20.4787 30.0242 20.6321C29.6539 20.7854 29.257 20.8644 28.8563 20.8644" stroke="#009FE3" stroke-width="2" stroke-linecap="round" stroke-linejoin="round"/>
<path d="M37.9406 26.9206C39.6261 26.9206 40.9925 25.5543 40.9925 23.8688C40.9925 22.1833 39.6261 20.8169 37.9406 20.8169C36.2551 20.8169 34.8887 22.1833 34.8887 23.8688C34.8887 25.5543 36.2551 26.9206 37.9406 26.9206Z" stroke="#009FE3" stroke-width="2" stroke-linecap="round" stroke-linejoin="round"/>
<path d="M35.2331 22.4557L37.9406 17.7532" stroke="#009FE3" stroke-width="2" stroke-linecap="round" stroke-linejoin="round"/>
<path d="M25.8163 17.7532H31.8844" stroke="#009FE3" stroke-width="2" stroke-linecap="round" stroke-linejoin="round"/>
<path d="M50.1481 19.2494C50.7253 19.2494 51.1931 18.7816 51.1931 18.2044C51.1931 17.6273 50.7253 17.1594 50.1481 17.1594C49.571 17.1594 49.1031 17.6273 49.1031 18.2044C49.1031 18.7816 49.571 19.2494 50.1481 19.2494Z" fill="#009FE3"/>
</svg>
