<svg width="56" height="52" viewBox="0 0 56 52" fill="none" xmlns="http://www.w3.org/2000/svg">
<g clip-path="url(#clip0_134_363)">
<path d="M0.751823 24.4892H0.754639C0.754639 24.473 0.751823 24.4594 0.752906 24.443C0.779657 24.088 1.11409 23.8231 1.49574 23.844C1.4965 23.844 1.50105 23.844 1.50235 23.844C1.50235 23.844 1.5056 23.844 1.5069 23.844C1.70335 23.8558 5.48153 24.0412 7.27174 22.4889C7.88331 21.9587 8.18136 21.2904 8.18136 20.4467C8.18136 20.0893 8.49261 19.8004 8.87676 19.8004C8.87676 19.8004 8.87676 19.8004 8.87795 19.8004C9.26198 19.8004 9.574 20.0898 9.574 20.4467C9.574 21.2904 9.87052 21.9587 10.4832 22.4889C11.8995 23.7174 14.5627 23.8577 15.709 23.8558C16.9934 23.8261 19.2112 23.6063 20.4666 22.525C21.0888 21.9912 21.3905 21.3094 21.3905 20.4467C21.3905 20.0893 21.7029 19.8004 22.0873 19.8004C22.4713 19.8004 22.7832 20.0898 22.7832 20.4467C22.7832 21.2904 23.0805 21.9587 23.6923 22.4889C25.0108 23.6327 27.4093 23.8317 28.6603 23.8542C29.9546 23.8176 32.1117 23.5849 33.3446 22.525C33.966 21.9912 34.2684 21.3094 34.2684 20.4467C34.2684 20.0893 34.5805 19.8004 34.9648 19.8004C35.3492 19.8004 35.6611 20.0898 35.6611 20.4467C35.6611 21.2904 35.9579 21.9587 36.5695 22.4889C37.8969 23.6401 40.3173 23.8347 41.5608 23.8542C42.8538 23.8176 45.0185 23.5877 46.254 22.525C46.8763 21.9912 47.1788 21.3094 47.1788 20.4467C47.1788 20.0893 47.4909 19.8004 47.8745 19.8004C48.2609 19.8004 48.5716 20.0898 48.5716 20.4467C48.5716 21.2904 48.8688 21.9587 49.4804 22.4889C51.3098 24.074 55.216 23.8467 55.2555 23.844C55.6383 23.8231 55.972 24.088 55.9983 24.443C56.0252 24.8004 55.7363 25.108 55.3526 25.1334C55.1686 25.1451 50.8086 25.4055 48.5327 23.4362C48.2823 23.2191 48.0639 22.9826 47.8817 22.73C47.3623 23.4693 46.5539 24.0559 45.4736 24.4671C44.5449 24.8213 43.533 24.9957 42.6672 25.0799C42.5965 25.1079 42.5218 25.1295 42.4424 25.1333C42.3952 25.1366 42.0619 25.1558 41.5594 25.1503C41.4103 25.153 41.2737 25.1558 41.1528 25.1558C40.7548 25.1558 40.399 25.1547 40.1454 25.0666C38.6865 24.9142 36.8505 24.4998 35.6227 23.4361C35.37 23.219 35.1531 22.9825 34.9714 22.7299C34.4514 23.4692 33.6431 24.0558 32.5634 24.467C31.6496 24.8138 30.6569 24.9891 29.802 25.0751C29.7282 25.1067 29.6488 25.1294 29.5642 25.1333C29.5163 25.1366 29.1736 25.1575 28.6581 25.1503C28.5065 25.153 28.3657 25.1558 28.2411 25.1558C27.8365 25.1558 27.4785 25.1531 27.2248 25.0622C25.772 24.9051 23.96 24.4891 22.7434 23.4361C22.491 23.219 22.2741 22.9825 22.0928 22.7299C21.5726 23.4692 20.7644 24.0558 19.6843 24.467C18.6039 24.8789 17.4116 25.0481 16.466 25.1153C16.429 25.1246 16.3926 25.1317 16.3526 25.1326C16.3339 25.1342 16.2675 25.1389 16.1656 25.1416C15.9923 25.1541 15.8002 25.1551 15.597 25.1551C15.5601 25.1551 15.5194 25.1541 15.4794 25.1541C15.4395 25.1541 15.3995 25.1551 15.3623 25.1551C15.0782 25.1551 14.8175 25.1541 14.5975 25.1224C13.6374 25.0605 12.3971 24.8932 11.2756 24.4665C10.2009 24.0557 9.39411 23.4727 8.87535 22.7383C8.35431 23.4732 7.54802 24.0563 6.4727 24.4665C4.89963 25.0655 3.09003 25.1552 2.1515 25.1552C1.94822 25.1552 1.7561 25.1542 1.58336 25.1417C1.48144 25.139 1.41538 25.1343 1.39524 25.1327C1.27871 25.1255 1.17246 25.0903 1.07846 25.0347C0.908426 24.9585 0.797526 24.8279 0.764711 24.6155C0.758105 24.5838 0.753664 24.553 0.75204 24.5202C0.754639 24.5095 0.751823 24.5015 0.751823 24.4892ZM54.506 30.8892C54.4672 30.892 50.5602 31.1205 48.7306 29.5362C48.1191 29.0052 47.8215 28.3376 47.8215 27.4924C47.8215 27.1346 47.5104 26.8463 47.1252 26.8463C46.7414 26.8463 46.4294 27.1346 46.4294 27.4924C46.4294 28.3564 46.1266 29.0367 45.5049 29.5708C44.2687 30.6346 42.1039 30.864 40.8107 30.901C39.5669 30.8807 37.1478 30.6853 35.8203 29.5351C35.2081 29.0049 34.9112 28.3367 34.9112 27.4914C34.9112 27.1347 34.599 26.8459 34.2153 26.8459C33.8304 26.8459 33.5184 27.1347 33.5184 27.4914C33.5184 28.3554 33.2161 29.0355 32.5946 29.5704C31.3618 30.6309 29.2056 30.862 27.9108 30.8988C26.6595 30.8779 24.2614 30.677 22.9425 29.5351C22.3309 29.0041 22.0336 28.3367 22.0336 27.4914C22.0336 27.1337 21.7211 26.8453 21.3375 26.8453C20.9527 26.8453 20.6407 27.1337 20.6407 27.4914C20.6407 28.3548 20.3391 29.035 19.7171 29.5698C18.4618 30.6501 16.2436 30.8701 14.9596 30.901C13.8127 30.901 11.1498 30.7634 9.73341 29.534C9.12108 29.0035 8.82456 28.3354 8.82456 27.4902C8.82456 27.1331 8.512 26.8448 8.12851 26.8448C8.12721 26.8448 8.12721 26.8448 8.12721 26.8448C7.74241 26.8448 7.4317 27.1331 7.4317 27.4902C7.4317 28.3354 7.13387 29.0035 6.52208 29.534C4.73209 31.0849 0.953804 30.8999 0.75713 30.8888C0.75583 30.8888 0.752906 30.8877 0.752906 30.8877C0.751823 30.8877 0.74695 30.8877 0.7463 30.8877C0.364432 30.868 0.0302159 31.1321 0.00346562 31.4888C0.00238261 31.5031 0.00519843 31.5184 0.00519843 31.5327H0C0 31.5443 0.00357392 31.5536 0.00357392 31.5658C0.00530673 31.5966 0.00953046 31.6274 0.0163534 31.6593C0.0489519 31.8716 0.159527 32.0027 0.3301 32.0803C0.423997 32.1342 0.530457 32.1711 0.646988 32.1783C0.666157 32.1801 0.733196 32.1834 0.834998 32.1877C1.0072 32.1999 1.19943 32.1999 1.40304 32.1999C2.34179 32.1999 4.15127 32.1107 5.72412 31.511C6.79944 31.102 7.60596 30.518 8.12656 29.7829C8.64543 30.518 9.4527 31.1025 10.5273 31.511C11.6488 31.9378 12.8892 32.1062 13.8493 32.1669C14.0681 32.1988 14.3299 32.1998 14.6139 32.1998C14.6516 32.1998 14.6911 32.1998 14.7312 32.1998C14.7711 32.1998 14.8123 32.1998 14.8487 32.1998C15.052 32.1998 15.2431 32.1998 15.4173 32.1876C15.5192 32.1833 15.5847 32.18 15.6042 32.1782C15.6436 32.1755 15.6807 32.1678 15.7177 32.1612C16.6631 32.0941 17.8551 31.9229 18.9357 31.5109C20.0154 31.0996 20.8237 30.5131 21.3444 29.774C21.5257 30.0282 21.7422 30.2629 21.9948 30.4817C23.2116 31.535 25.0237 31.95 26.4765 32.1061C26.7301 32.1988 27.0881 32.1998 27.4929 32.1998C27.6166 32.1998 27.7579 32.1988 27.9097 32.1941C28.4264 32.2013 28.7682 32.1815 28.8157 32.1787C28.9008 32.1726 28.9803 32.1518 29.0531 32.1205C29.9084 32.0351 30.9014 31.8597 31.8147 31.5109C32.8939 31.0996 33.7022 30.5131 34.2225 29.774C34.4051 30.0282 34.6213 30.2629 34.8738 30.4817C36.1024 31.5454 37.9376 31.9576 39.3974 32.1106C39.6513 32.1988 40.0058 32.1998 40.4036 32.1998C40.5257 32.1998 40.6616 32.1988 40.8107 32.1941C41.3139 32.2013 41.6463 32.1815 41.6932 32.1787C41.7736 32.1726 41.8485 32.1534 41.9182 32.1261C42.7849 32.0407 43.7964 31.8651 44.7251 31.511C45.8048 31.0997 46.6133 30.5132 47.1335 29.7741C47.3153 30.0283 47.5327 30.263 47.784 30.4818C50.0599 32.4513 54.4208 32.191 54.604 32.1788C54.9883 32.1535 55.2774 31.8444 55.2501 31.4895C55.2215 31.1332 54.8887 30.8699 54.506 30.8892Z" fill="#FF8100"/>
</g>
<defs>
<clipPath id="clip0_134_363">
<rect width="56" height="52" fill="white"/>
</clipPath>
</defs>
</svg>
